<?xml version="1.0" encoding="UTF-8" standalone="no"?>
<!-- Created with Inkscape (http://www.inkscape.org/) -->

<svg
   width="267.06183mm"
   height="83.34166mm"
   viewBox="0 0 267.06183 83.34166"
   version="1.1"
   id="svg5"
   inkscape:version="1.2-dev (4321270, 2021-05-07)"
   sodipodi:docname="lpaw.svg"
   xmlns:inkscape="http://www.inkscape.org/namespaces/inkscape"
   xmlns:sodipodi="http://sodipodi.sourceforge.net/DTD/sodipodi-0.dtd"
   xmlns="http://www.w3.org/2000/svg"
   xmlns:svg="http://www.w3.org/2000/svg">
  <sodipodi:namedview
     id="namedview7"
     pagecolor="#ffffff"
     bordercolor="#666666"
     borderopacity="1.0"
     objecttolerance="10.0"
     gridtolerance="10.0"
     guidetolerance="10.0"
     inkscape:pageshadow="2"
     inkscape:pageopacity="0.0"
     inkscape:pagecheckerboard="0"
     inkscape:document-units="mm"
     showgrid="false"
     inkscape:zoom="0.7233726"
     inkscape:cx="846.72823"
     inkscape:cy="89.165666"
     inkscape:window-width="1920"
     inkscape:window-height="1001"
     inkscape:window-x="-9"
     inkscape:window-y="-9"
     inkscape:window-maximized="1"
     inkscape:current-layer="Layer1011" />
  <defs
     id="defs2">
    <filter
       style="color-interpolation-filters:sRGB;"
       inkscape:label="Invert"
       id="filter2733"
       x="-1.8244628e-09"
       y="-2.3949547e-09"
       width="1"
       height="1">
      <feColorMatrix
         values="1 0 0 0 0 0 1 0 0 0 0 0 1 0 0 -0.21 -0.72 -0.07 2 0 "
         result="fbSourceGraphic"
         id="feColorMatrix2731" />
      <feColorMatrix
         result="fbSourceGraphicAlpha"
         in="fbSourceGraphic"
         values="0 0 0 -1 0 0 0 0 -1 0 0 0 0 -1 0 0 0 0 1 0"
         id="feColorMatrix2753" />
      <feColorMatrix
         id="feColorMatrix2755"
         values="1 0 0 0 0 0 1 0 0 0 0 0 1 0 0 -0.21 -0.72 -0.07 2 0 "
         result="color2"
         in="fbSourceGraphic" />
    </filter>
  </defs>
  <g
     inkscape:label="Layer 1"
     inkscape:groupmode="layer"
     id="layer1"
     transform="translate(24.332948,-61.614917)">
    <g
       id="Layer1000"
       transform="matrix(0.26458333,0,0,0.26458333,52.095781,-149.37707)">
      <g
         id="Layer1011"
         transform="translate(-760.50579,-735.09046)">
        <path
           d="m 488.7243,1806.7532 h -17.083 v 40.2617 h 9.0877 v -11.5034 h 7.9953 c 10.2378,0 16.1047,-5.407 16.1047,-14.782 0,-8.9151 -5.8669,-13.9763 -16.1047,-13.9763 z m -0.4606,21.1659 h -7.5347 v -13.6312 h 7.5347 c 5.0618,0 7.9375,2.2432 7.9375,6.7289 0,4.602 -2.8757,6.9023 -7.9375,6.9023 z m 18.4056,-21.1659 v 7.7072 h 12.2515 v 32.5545 h 9.0876 v -32.5545 h 12.3085 v -7.7072 z m 37.6164,31.634 c -2.5306,0 -4.4287,1.841 -4.4287,4.5442 0,2.6453 1.8981,4.6012 4.4287,4.6012 2.5883,0 4.4287,-1.9559 4.4287,-4.6012 0,-2.7032 -1.8404,-4.5442 -4.4287,-4.5442 z m 28.4702,-31.634 v 40.2617 h 26.3432 v -7.9375 h -17.2555 v -32.3242 z m 61.7164,40.2617 h 9.7201 l -17.1971,-40.2617 h -9.3757 l -17.4851,40.2617 h 9.375 l 3.1637,-7.822 h 18.6353 z m -18.8079,-15.1271 6.3839,-15.6448 6.3275,15.6448 z m 32.7271,-25.1346 v 40.2617 h 8.6855 v -25.8255 l 19.498,25.8255 h 8.2827 v -40.2617 h -8.6278 v 25.8826 l -19.5558,-25.8826 z m 72.357,30.5416 c -2.5883,1.3227 -5.464,2.1855 -7.8798,2.1855 -7.1325,0 -12.7113,-5.4641 -12.7113,-12.5966 0,-7.0747 5.5217,-12.5388 12.6536,-12.5388 3.911,0 8.0523,1.7256 11.0435,4.4865 l 5.1189,-6.4994 c -4.0836,-3.5659 -10.1808,-5.8669 -16.1624,-5.8669 -12.5388,0 -21.9716,8.8004 -21.9716,20.4186 0,11.676 9.2602,20.5341 21.4539,20.5341 5.5795,0 12.0789,-2.1284 16.335,-5.2344 v -15.4722 h -7.8798 z m 42.8501,0 c -2.5884,1.3227 -5.4641,2.1855 -7.8798,2.1855 -7.1325,0 -12.7114,-5.4641 -12.7114,-12.5966 0,-7.0747 5.5218,-12.5388 12.6536,-12.5388 3.9111,0 8.0524,1.7256 11.0436,4.4865 l 5.1189,-6.4994 c -4.0836,-3.5659 -10.1808,-5.8669 -16.1625,-5.8669 -12.5388,0 -21.9715,8.8004 -21.9715,20.4186 0,11.676 9.2602,20.5341 21.4539,20.5341 5.5795,0 12.0788,-2.1284 16.335,-5.2344 v -15.4722 h -7.8798 z m 15.8166,-30.5416 v 40.2617 h 31.2896 v -7.5346 h -22.2019 v -8.9152 h 19.3832 v -7.5347 h -19.3832 v -8.7425 h 21.5694 v -7.5347 z m 38.4214,0 v 40.2617 h 8.6855 v -25.8255 l 19.4981,25.8255 h 8.2826 v -40.2617 h -8.6278 v 25.8826 l -19.5558,-25.8826 z m 72.357,30.5416 c -2.5883,1.3227 -5.464,2.1855 -7.8798,2.1855 -7.1325,0 -12.7113,-5.4641 -12.7113,-12.5966 0,-7.0747 5.5217,-12.5388 12.6536,-12.5388 3.911,0 8.0523,1.7256 11.0435,4.4865 l 5.1189,-6.4994 c -4.0836,-3.5659 -10.1807,-5.8669 -16.1624,-5.8669 -12.5388,0 -21.9716,8.8004 -21.9716,20.4186 0,11.676 9.2602,20.5341 21.4539,20.5341 5.5795,0 12.0789,-2.1284 16.335,-5.2344 v -15.4722 h -7.8798 z m 50.1545,-30.5416 h -17.083 v 40.2617 h 9.0877 v -11.5034 h 7.9953 c 10.2378,0 16.1047,-5.407 16.1047,-14.782 0,-8.9151 -5.8669,-13.9763 -16.1047,-13.9763 z m -0.4606,21.1659 h -7.5347 v -13.6312 h 7.5347 c 5.0618,0 7.9375,2.2432 7.9375,6.7289 0,4.602 -2.8757,6.9023 -7.9375,6.9023 z m 57.4024,19.0958 -8.57,-13.2867 c 4.8893,-2.3003 7.5347,-6.7867 7.5347,-12.9987 0,-8.9151 -5.9817,-13.9763 -16.5076,-13.9763 h -17.4851 v 40.2617 h 9.0877 v -11.5034 h 8.3974 0.8628 l 6.3845,11.5034 z m -25.9403,-32.727 h 8.3974 c 5.0041,0 7.8798,2.2432 7.8798,6.7289 0,4.602 -2.8757,6.9023 -7.8798,6.9023 h -8.3974 z m 62.291,32.727 h 9.7202 l -17.1971,-40.2617 h -9.3757 l -17.4852,40.2617 h 9.3751 l 3.1637,-7.822 h 18.6353 z m -18.8078,-15.1271 6.3839,-15.6448 6.3274,15.6448 z m 63.7286,-25.1346 h -9.1455 l -10.0652,18.0599 -10.2956,-18.0599 h -9.1454 l 14.8968,27.4927 v 12.769 h 9.0877 v -12.9987 z m 30.9444,40.2617 h 9.7202 l -17.1971,-40.2617 h -9.3758 l -17.4851,40.2617 h 9.375 l 3.1638,-7.822 h 18.6353 z m -18.8078,-15.1271 6.3838,-15.6448 6.3275,15.6448 z m 49.81,-25.1346 h -17.083 v 40.2617 h 16.7379 c 12.7113,0 21.5109,-8.2826 21.5109,-20.1312 0,-11.9056 -8.6848,-20.1305 -21.1658,-20.1305 z m 0.2296,32.6122 h -8.2249 v -24.9627 h 7.8227 c 6.9022,0 12.0782,5.1189 12.0782,12.5388 0,7.3621 -4.9463,12.4239 -11.676,12.4239 z m 26.9179,-32.6122 v 40.2617 h 31.2896 v -7.5346 h -22.2019 v -8.9152 h 19.3833 v -7.5347 h -19.3833 v -8.7425 h 21.5694 v -7.5347 z m 38.4214,0 v 40.2617 h 8.6855 v -25.8255 l 19.4981,25.8255 h 8.2826 v -40.2617 h -8.6277 v 25.8826 l -19.5558,-25.8826 z m 75.0602,40.2617 h 9.7201 l -17.1971,-40.2617 h -9.3757 l -17.4851,40.2617 h 9.375 l 3.1637,-7.822 h 18.6353 z m -18.8079,-15.1271 6.3839,-15.6448 6.3275,15.6448 z m 79.7185,15.1271 h 9.7201 l -17.1971,-40.2617 h -9.3757 l -17.4851,40.2617 h 9.375 l 3.1638,-7.822 h 18.6352 z m -18.8079,-15.1271 6.3839,-15.6448 6.3275,15.6448 z m 32.7271,-25.1346 v 40.2617 h 8.2249 v -27.1482 l 10.6984,23.0647 h 5.924 l 10.6984,-23.0647 v 27.1482 h 8.1678 v -40.2617 h -10.123 l -11.676,24.617 -11.7337,-24.617 z m 52.628,0 v 40.2617 h 9.0876 v -40.2617 z m 18.0028,0 v 40.2617 h 8.6855 v -25.8255 l 19.498,25.8255 h 8.2827 v -40.2617 h -8.6278 v 25.8826 l -19.5558,-25.8826 z m 45.3236,0 v 40.2617 h 9.0876 v -40.2617 z"
            stroke="#fff"
            fill="#fff"
           id="path1903" />
        <path
           d="m 978.5045,1638.8994 20.8072,12.013 h 0.0174 l 20.8069,12.0129 2.1962,1.2682 v 2.524 24.0259 21.4407 l 9.4187,5.3165 v -26.7572 c 0,-10.6707 0,-21.3411 0,-32.0118 -9.2376,-5.3333 -18.4754,-10.6666 -27.7126,-16.0002 0,0 0,0 0,-0.01 -9.2394,-5.334 -18.4782,-10.6682 -27.7172,-16.0025 -9.2391,5.3343 -18.4779,10.6685 -27.7173,16.0025 0.002,0 0.003,0.01 0.004,0.01 -9.2372,5.3336 -18.475,10.6669 -27.7126,16.0002 0,10.6707 0,21.3411 0,32.0118 v 26.7572 l 9.4187,-5.3165 v -21.4407 -24.0259 -2.524 l 2.1962,-1.2682 20.8069,-12.0129 h 0.0174 l 20.8072,-12.013 2.1791,-1.2579 z m 35.0425,78.3656 v -5.0199 -21.5017 -17.416 -4.0857 l -18.6108,-10.7451 0.004,-0.01 -18.6151,-10.7475 -18.6152,10.7475 0.004,0.01 -18.6108,10.7451 v 4.0857 17.416 21.5017 5.0199 l -14.013,7.9098 -1.1458,0.6469 -35.6729,20.1361 -8.8639,5.0033 -10.8781,6.1402 -7.5313,4.2513 -9.5457,5.3881 -8.8636,5.0034 -3.291,1.8574 v -3.7579 -2.5239 -3.7579 -72.8184 -76.5763 -2.5239 l 2.1962,-1.2682 66.3168,-38.2883 h 0.0174 l 66.3174,-38.2883 2.1791,-1.2579 2.179,1.2579 66.3174,38.2883 h 0.017 l 66.3168,38.2883 2.1962,1.2682 v 2.5239 76.5763 72.8184 3.7579 2.5239 3.7579 l -3.291,-1.8574 -8.8636,-5.0034 -9.5457,-5.3881 -7.5313,-4.2513 -10.8781,-6.1402 -8.8639,-5.0033 -35.6729,-20.1361 -1.1458,-0.6469 z m 91.0201,41.338 v -67.8596 -74.052 l -64.1207,-37.0204 v -0.01 l -64.1253,-37.0229 -64.1254,37.0229 0.004,0.01 -64.1207,37.0204 v 74.052 67.8596 l 9.4187,-5.3165 v -62.5431 c 0,-22.0222 0,-44.044 0,-66.0662 0,-0.8411 0,-1.6825 0,-2.5239 0.7322,-0.4228 1.4643,-0.8455 2.1962,-1.2682 19.0717,-11.011 38.1432,-22.0222 57.215,-33.0331 0.006,0 0.0118,0 0.0174,0 19.0718,-11.011 38.1439,-22.0222 57.2153,-33.0335 0.7266,-0.4193 1.4528,-0.8386 2.1791,-1.2579 0.7262,0.4193 1.4524,0.8386 2.179,1.2579 19.0714,11.0113 38.1435,22.0225 57.2153,33.0335 0.01,0 0.011,0 0.017,0 19.0718,11.0109 38.1433,22.0221 57.215,33.0331 0.7319,0.4227 1.464,0.8454 2.1962,1.2682 0,0.8414 0,1.6828 0,2.5239 0,22.0222 0,44.044 0,66.0662 v 62.5431 z m -18.2039,-10.2757 v -57.5839 c 0,-21.1808 0,-42.3612 0,-63.542 -18.34,-10.5885 -36.6793,-21.177 -55.0189,-31.7652 0,0 0,-0.01 0,-0.01 -18.3412,-10.5891 -36.6824,-21.1785 -55.0232,-31.768 -18.3409,10.5895 -36.6821,21.1789 -55.0233,31.768 0.002,0 0.003,0.01 0.004,0.01 -18.3396,10.5882 -36.6789,21.1767 -55.0189,31.7652 0,21.1808 0,42.3612 0,63.542 v 57.5839 l 9.419,-5.3165 v -52.2674 c 0,-18.5189 0,-37.0372 0,-55.5561 0,-0.8411 0,-1.6826 0,-2.524 0.7322,-0.4227 1.4643,-0.8454 2.1962,-1.2682 16.0376,-9.2593 32.0752,-18.5186 48.1129,-27.7782 0.006,0 0.0118,0 0.0174,0 16.0376,-9.259 32.0756,-18.5186 48.1132,-27.7782 0.7266,-0.4193 1.4528,-0.8386 2.1791,-1.258 0.7262,0.4194 1.4524,0.8387 2.179,1.258 16.0376,9.2596 32.0756,18.5192 48.1132,27.7782 0.01,0 0.012,0 0.017,0 16.0377,9.2596 32.0753,18.5189 48.1129,27.7782 0.7319,0.4228 1.464,0.8455 2.1962,1.2682 0,0.8414 0,1.6829 0,2.524 0,18.5189 0,37.0372 0,55.5561 v 52.2674 z m -18.2042,-10.2757 v -47.3082 c 0,-17.6775 0,-35.3544 0,-53.0319 -15.3058,-8.8369 -30.6113,-17.6735 -45.9168,-26.5103 0,0 0,0 0,-0.01 -15.3071,-8.8372 -30.6141,-17.675 -45.9211,-26.5129 -15.3071,8.8379 -30.6141,17.6757 -45.9212,26.5129 0.002,0 0.003,0 0.004,0.01 -15.3055,8.8368 -30.611,17.6734 -45.9168,26.5103 0,17.6775 0,35.3544 0,53.0319 v 47.3082 l 9.4187,-5.3165 v -41.9917 c 0,-15.0154 0,-30.0307 0,-45.0461 0,-0.8411 0,-1.6825 0,-2.5239 0.7322,-0.4227 1.4643,-0.8455 2.1962,-1.2682 13.0038,-7.5074 26.0073,-15.0154 39.0108,-22.523 0.006,0 0.0118,0 0.0174,0 13.0041,-7.5077 26.0079,-15.0154 39.0114,-22.5231 0.7266,-0.4193 1.4528,-0.8386 2.1791,-1.2579 0.7262,0.4193 1.4524,0.8386 2.179,1.2579 13.0035,7.5077 26.0073,15.0154 39.0114,22.5231 0.01,0 0.011,0 0.017,0 13.0035,7.5076 26.007,15.0156 39.0108,22.523 0.7319,0.4227 1.464,0.8455 2.1962,1.2682 0,0.8414 0,1.6828 0,2.5239 0,15.0154 0,30.0307 0,45.0461 v 41.9917 z m -18.2039,-10.2753 v -37.0329 c 0,-14.1739 0,-28.3479 0,-42.5218 -12.2717,-7.085 -24.5433,-14.1702 -36.8147,-21.2552 0,0 0,-0.01 0,-0.01 -12.2735,-7.0858 -24.5464,-14.1717 -36.8193,-21.2576 -12.273,7.0859 -24.5459,14.1718 -36.8194,21.2576 0.002,0 0.003,0 0.004,0.01 -12.2714,7.085 -24.543,14.1702 -36.8147,21.2552 0,14.1739 0,28.3479 0,42.5218 v 37.0329 l 9.419,-5.3165 v -31.7164 c 0,-11.5121 0,-23.0239 0,-34.536 0,-0.8411 0,-1.6825 0,-2.5239 0.7322,-0.4228 1.4643,-0.8455 2.1962,-1.2682 9.9696,-5.7558 19.9393,-11.5118 29.9087,-17.2682 0.006,0 0.0118,0 0.0174,0 9.97,-5.7557 19.9397,-11.5118 29.9093,-17.2678 0.7266,-0.4194 1.4528,-0.8387 2.1791,-1.258 0.7262,0.4193 1.4524,0.8386 2.179,1.258 9.9696,5.756 19.9393,11.5121 29.9093,17.2678 0.01,0 0.011,0 0.017,0 9.9694,5.7564 19.9391,11.5124 29.9087,17.2682 0.7319,0.4227 1.464,0.8454 2.1962,1.2682 0,0.8414 0,1.6828 0,2.5239 0,11.5121 0,23.0239 0,34.536 v 31.7164 z"
          stroke="#fff"
          fill="#fff"
           id="path1905" />
      </g>
    </g>
  </g>
</svg>
